<svg width="300" height="300" viewBox="0 0 300 300" fill="none" xmlns="http://www.w3.org/2000/svg">
<g clip-path="url(#clip0_1_2)">
<rect width="300" height="300" fill="white"/>
<rect width="30" height="30" fill="#3BE556"/>
<rect x="30" width="30" height="30" fill="#1FB036"/>
<rect x="60" width="30" height="30" fill="#3BE556"/>
<rect x="90" width="30" height="30" fill="#1FB036"/>
<rect x="240" width="30" height="30" fill="#3BE556"/>
<rect x="270" width="30" height="30" fill="#1FB036"/>
<rect x="120" width="30" height="30" fill="#3BE556"/>
<rect x="150" width="30" height="30" fill="#1FB036"/>
<rect x="180" width="30" height="30" fill="#3BE556"/>
<rect x="210" width="30" height="30" fill="#1FB036"/>
<rect x="300" y="60" width="30" height="30" transform="rotate(-180 300 60)" fill="#3BE556"/>
<rect x="270" y="60" width="30" height="30" transform="rotate(-180 270 60)" fill="#1FB036"/>
<rect x="240" y="60" width="30" height="30" transform="rotate(-180 240 60)" fill="#3BE556"/>
<rect x="210" y="60" width="30" height="30" transform="rotate(-180 210 60)" fill="#1FB036"/>
<rect x="60" y="60" width="30" height="30" transform="rotate(-180 60 60)" fill="#3BE556"/>
<rect x="30" y="60" width="30" height="30" transform="rotate(-180 30 60)" fill="#1FB036"/>
<rect x="180" y="60" width="30" height="30" transform="rotate(-180 180 60)" fill="#3BE556"/>
<rect x="150" y="60" width="30" height="30" transform="rotate(-180 150 60)" fill="#1FB036"/>
<rect x="120" y="60" width="30" height="30" transform="rotate(-180 120 60)" fill="#3BE556"/>
<rect x="90" y="60" width="30" height="30" transform="rotate(-180 90 60)" fill="#1FB036"/>
<rect y="180" width="30" height="30" fill="#3BE556"/>
<rect x="30" y="180" width="30" height="30" fill="#1FB036"/>
<rect x="60" y="180" width="30" height="30" fill="#3BE556"/>
<rect x="90" y="180" width="30" height="30" fill="#1FB036"/>
<rect x="240" y="180" width="30" height="30" fill="#3BE556"/>
<rect x="270" y="180" width="30" height="30" fill="#1FB036"/>
<rect x="120" y="180" width="30" height="30" fill="#3BE556"/>
<rect x="150" y="180" width="30" height="30" fill="#1FB036"/>
<rect x="180" y="180" width="30" height="30" fill="#3BE556"/>
<rect x="210" y="180" width="30" height="30" fill="#1FB036"/>
<rect x="300" y="240" width="30" height="30" transform="rotate(-180 300 240)" fill="#3BE556"/>
<rect x="270" y="240" width="30" height="30" transform="rotate(-180 270 240)" fill="#1FB036"/>
<rect x="240" y="240" width="30" height="30" transform="rotate(-180 240 240)" fill="#3BE556"/>
<rect x="210" y="240" width="30" height="30" transform="rotate(-180 210 240)" fill="#1FB036"/>
<rect x="60" y="240" width="30" height="30" transform="rotate(-180 60 240)" fill="#3BE556"/>
<rect x="30" y="240" width="30" height="30" transform="rotate(-180 30 240)" fill="#1FB036"/>
<rect x="180" y="240" width="30" height="30" transform="rotate(-180 180 240)" fill="#3BE556"/>
<rect x="150" y="240" width="30" height="30" transform="rotate(-180 150 240)" fill="#1FB036"/>
<rect x="120" y="240" width="30" height="30" transform="rotate(-180 120 240)" fill="#3BE556"/>
<rect x="90" y="240" width="30" height="30" transform="rotate(-180 90 240)" fill="#1FB036"/>
<rect y="120" width="30" height="30" fill="#3BE556"/>
<rect x="30" y="120" width="30" height="30" fill="#1FB036"/>
<rect x="60" y="120" width="30" height="30" fill="#3BE556"/>
<rect x="90" y="120" width="30" height="30" fill="#1FB036"/>
<rect x="240" y="120" width="30" height="30" fill="#3BE556"/>
<rect x="270" y="120" width="30" height="30" fill="#1FB036"/>
<rect x="120" y="120" width="30" height="30" fill="#3BE556"/>
<rect x="150" y="120" width="30" height="30" fill="#1FB036"/>
<rect x="180" y="120" width="30" height="30" fill="#3BE556"/>
<rect x="210" y="120" width="30" height="30" fill="#1FB036"/>
<rect x="300" y="180" width="30" height="30" transform="rotate(-180 300 180)" fill="#3BE556"/>
<rect x="270" y="180" width="30" height="30" transform="rotate(-180 270 180)" fill="#1FB036"/>
<rect x="240" y="180" width="30" height="30" transform="rotate(-180 240 180)" fill="#3BE556"/>
<rect x="210" y="180" width="30" height="30" transform="rotate(-180 210 180)" fill="#1FB036"/>
<rect x="60" y="180" width="30" height="30" transform="rotate(-180 60 180)" fill="#3BE556"/>
<rect x="30" y="180" width="30" height="30" transform="rotate(-180 30 180)" fill="#1FB036"/>
<rect x="180" y="180" width="30" height="30" transform="rotate(-180 180 180)" fill="#3BE556"/>
<rect x="150" y="180" width="30" height="30" transform="rotate(-180 150 180)" fill="#1FB036"/>
<rect x="120" y="180" width="30" height="30" transform="rotate(-180 120 180)" fill="#3BE556"/>
<rect x="90" y="180" width="30" height="30" transform="rotate(-180 90 180)" fill="#1FB036"/>
<rect y="240" width="30" height="30" fill="#3BE556"/>
<rect x="30" y="240" width="30" height="30" fill="#1FB036"/>
<rect x="60" y="240" width="30" height="30" fill="#3BE556"/>
<rect x="90" y="240" width="30" height="30" fill="#1FB036"/>
<rect x="240" y="240" width="30" height="30" fill="#3BE556"/>
<rect x="270" y="240" width="30" height="30" fill="#1FB036"/>
<rect x="120" y="240" width="30" height="30" fill="#3BE556"/>
<rect x="150" y="240" width="30" height="30" fill="#1FB036"/>
<rect x="180" y="240" width="30" height="30" fill="#3BE556"/>
<rect x="210" y="240" width="30" height="30" fill="#1FB036"/>
<rect x="300" y="300" width="30" height="30" transform="rotate(-180 300 300)" fill="#3BE556"/>
<rect x="270" y="300" width="30" height="30" transform="rotate(-180 270 300)" fill="#1FB036"/>
<rect x="240" y="300" width="30" height="30" transform="rotate(-180 240 300)" fill="#3BE556"/>
<rect x="210" y="300" width="30" height="30" transform="rotate(-180 210 300)" fill="#1FB036"/>
<rect x="60" y="300" width="30" height="30" transform="rotate(-180 60 300)" fill="#3BE556"/>
<rect x="30" y="300" width="30" height="30" transform="rotate(-180 30 300)" fill="#1FB036"/>
<rect x="180" y="300" width="30" height="30" transform="rotate(-180 180 300)" fill="#3BE556"/>
<rect x="150" y="300" width="30" height="30" transform="rotate(-180 150 300)" fill="#1FB036"/>
<rect x="120" y="300" width="30" height="30" transform="rotate(-180 120 300)" fill="#3BE556"/>
<rect x="90" y="300" width="30" height="30" transform="rotate(-180 90 300)" fill="#1FB036"/>
<rect y="60" width="30" height="30" fill="#3BE556"/>
<rect x="30" y="60" width="30" height="30" fill="#1FB036"/>
<rect x="60" y="60" width="30" height="30" fill="#3BE556"/>
<rect x="90" y="60" width="30" height="30" fill="#1FB036"/>
<rect x="240" y="60" width="30" height="30" fill="#3BE556"/>
<rect x="270" y="60" width="30" height="30" fill="#1FB036"/>
<rect x="120" y="60" width="30" height="30" fill="#3BE556"/>
<rect x="150" y="60" width="30" height="30" fill="#1FB036"/>
<rect x="180" y="60" width="30" height="30" fill="#3BE556"/>
<rect x="210" y="60" width="30" height="30" fill="#1FB036"/>
<rect x="300" y="120" width="30" height="30" transform="rotate(-180 300 120)" fill="#3BE556"/>
<rect x="270" y="120" width="30" height="30" transform="rotate(-180 270 120)" fill="#1FB036"/>
<rect x="240" y="120" width="30" height="30" transform="rotate(-180 240 120)" fill="#3BE556"/>
<rect x="210" y="120" width="30" height="30" transform="rotate(-180 210 120)" fill="#1FB036"/>
<rect x="60" y="120" width="30" height="30" transform="rotate(-180 60 120)" fill="#3BE556"/>
<rect x="30" y="120" width="30" height="30" transform="rotate(-180 30 120)" fill="#1FB036"/>
<rect x="180" y="120" width="30" height="30" transform="rotate(-180 180 120)" fill="#3BE556"/>
<rect x="150" y="120" width="30" height="30" transform="rotate(-180 150 120)" fill="#1FB036"/>
<rect x="120" y="120" width="30" height="30" transform="rotate(-180 120 120)" fill="#3BE556"/>
<rect x="90" y="120" width="30" height="30" transform="rotate(-180 90 120)" fill="#1FB036"/>
</g>
<defs>
<clipPath id="clip0_1_2">
<rect width="300" height="300" fill="white"/>
</clipPath>
</defs>
</svg>
